<svg id="svg" version="1.1" xmlns="http://www.w3.org/2000/svg" xmlns:xlink="http://www.w3.org/1999/xlink" width="400" height="400" viewBox="0, 0, 400,400"><g id="svgg"><path id="path0" d="M81.524 48.238 C 71.375 50.426,68.539 55.344,67.358 72.800 C 66.581 84.283,66.738 292.216,67.529 299.400 C 68.996 312.727,72.522 317.711,81.761 319.517 C 86.644 320.471,315.341 320.743,322.400 319.802 C 333.896 318.271,337.372 314.317,339.278 300.600 C 339.838 296.572,340.166 89.619,339.633 76.400 C 338.843 56.787,336.626 51.893,327.000 48.512 C 324.199 47.528,86.047 47.262,81.524 48.238 M133.800 88.821 C 147.870 92.485,154.425 108.163,146.738 119.767 C 135.088 137.356,106.407 129.695,106.348 108.979 C 106.310 95.477,120.198 85.279,133.800 88.821 M259.200 148.401 C 275.375 150.735,290.391 162.866,292.621 175.400 C 292.777 176.280,293.094 177.360,293.324 177.800 C 294.202 179.478,295.101 211.333,295.265 246.600 L 295.400 275.400 288.400 275.518 C 284.550 275.582,277.288 275.762,272.261 275.918 C 267.235 276.073,263.028 276.046,262.912 275.859 C 262.796 275.671,262.568 259.381,262.404 239.659 C 262.071 199.551,262.158 200.759,259.171 194.588 C 250.032 175.704,227.841 174.575,216.850 192.436 C 212.657 199.249,212.422 201.390,212.350 233.400 C 212.319 247.260,212.182 262.830,212.047 268.000 L 211.800 277.400 195.144 277.510 L 178.489 277.621 178.243 269.510 C 178.107 265.050,177.815 250.330,177.594 236.800 C 177.199 212.695,176.294 157.955,176.232 154.400 L 176.200 152.600 195.000 152.600 L 213.800 152.600 214.000 162.800 L 214.200 173.000 217.670 167.800 C 227.456 153.135,242.690 146.019,259.200 148.401 M145.800 215.194 L 145.800 277.388 130.400 277.237 C 121.930 277.154,114.190 277.066,113.200 277.043 L 111.400 277.000 111.106 225.200 C 110.944 196.710,110.854 168.900,110.906 163.400 L 111.000 153.400 126.400 153.184 C 134.870 153.065,142.700 152.975,143.800 152.984 L 145.800 153.000 145.800 215.194 " stroke="none" fill="#fbfbfb" fill-rule="evenodd"></path><path id="path1" d="M0.000 200.000 L 0.000 400.000 200.000 400.000 L 400.000 400.000 400.000 200.000 L 400.000 0.000 200.000 0.000 L 0.000 0.000 0.000 200.000 M326.600 47.863 C 328.140 48.311,330.120 49.045,331.000 49.495 C 331.880 49.946,332.738 50.331,332.907 50.351 C 333.291 50.397,335.183 52.606,336.204 54.200 C 337.266 55.858,338.244 58.723,339.276 63.200 L 340.152 67.000 340.296 178.400 C 340.399 258.717,340.312 291.697,339.984 296.600 C 339.734 300.340,339.534 303.715,339.540 304.100 C 339.546 304.485,339.407 304.800,339.231 304.800 C 339.055 304.800,338.806 305.692,338.677 306.782 C 338.261 310.291,334.599 316.720,332.781 317.132 C 332.461 317.204,331.911 317.523,331.557 317.842 C 330.420 318.865,326.502 319.996,322.701 320.397 C 319.120 320.775,86.256 321.006,85.651 320.632 C 85.501 320.539,83.860 320.255,82.005 320.001 C 79.843 319.705,77.797 319.125,76.307 318.385 C 75.028 317.751,73.671 317.332,73.291 317.454 C 72.729 317.634,72.708 317.599,73.176 317.267 C 73.648 316.932,73.454 316.560,72.099 315.205 C 71.190 314.296,70.232 312.888,69.971 312.076 C 69.710 311.264,69.361 310.420,69.196 310.200 C 66.604 306.742,66.425 298.595,66.424 183.600 C 66.423 78.982,66.561 68.479,68.028 61.800 C 69.173 56.580,71.975 51.274,73.764 50.934 C 73.955 50.898,74.221 50.698,74.355 50.490 C 75.138 49.280,79.950 47.772,84.800 47.216 C 91.944 46.397,323.690 47.018,326.600 47.863 M127.600 88.698 C 125.290 88.923,120.970 89.714,120.600 89.980 C 120.380 90.137,119.570 90.509,118.800 90.805 C 115.782 91.967,110.912 96.010,111.460 96.898 C 111.605 97.132,111.536 97.208,111.307 97.066 C 111.078 96.925,110.668 97.077,110.396 97.404 C 110.124 97.732,110.021 98.000,110.167 98.000 C 110.312 98.000,110.070 98.388,109.628 98.863 C 105.501 103.292,106.212 114.917,110.968 120.775 C 123.570 136.298,149.600 128.038,149.600 108.517 C 149.600 103.561,143.802 92.800,141.131 92.800 C 140.969 92.800,140.166 92.345,139.347 91.790 C 138.528 91.234,137.395 90.667,136.829 90.528 C 136.263 90.390,135.710 90.149,135.600 89.993 C 135.336 89.618,128.881 88.573,127.600 88.698 M245.600 149.211 C 242.574 149.902,239.381 150.882,239.020 151.232 C 238.811 151.434,238.348 151.600,237.990 151.600 C 237.249 151.600,231.324 154.582,230.369 155.436 C 230.021 155.746,229.565 156.000,229.354 156.000 C 228.731 156.000,222.461 161.976,222.191 162.829 C 222.054 163.259,221.775 163.508,221.571 163.382 C 221.367 163.256,221.200 163.332,221.200 163.551 C 221.200 163.769,220.122 165.445,218.804 167.274 C 217.486 169.103,216.046 171.320,215.604 172.200 C 215.162 173.080,214.798 173.620,214.794 173.400 C 214.791 173.180,214.620 173.265,214.416 173.588 C 213.660 174.784,213.551 173.464,213.586 163.489 C 213.617 154.469,213.547 153.265,212.978 153.047 C 212.624 152.911,204.312 152.800,194.506 152.800 L 176.677 152.800 176.925 159.500 C 177.061 163.185,177.359 181.500,177.587 200.200 C 177.816 218.900,178.183 240.500,178.403 248.200 C 178.624 255.900,178.803 265.487,178.802 269.504 L 178.800 276.809 195.100 276.704 L 211.400 276.600 211.507 261.600 C 211.902 206.390,212.241 199.559,214.822 194.743 C 215.251 193.942,215.830 192.862,216.108 192.343 C 217.262 190.191,218.281 188.870,220.613 186.503 C 221.966 185.130,223.003 183.936,222.918 183.851 C 222.833 183.766,223.228 183.579,223.798 183.436 C 224.461 183.270,224.732 183.001,224.552 182.688 C 224.398 182.420,224.405 182.319,224.567 182.464 C 224.729 182.610,225.883 182.227,227.131 181.613 C 231.517 179.456,241.303 178.149,242.200 179.600 C 242.336 179.820,242.806 180.000,243.246 180.000 C 244.025 180.000,246.481 180.972,249.112 182.321 C 251.609 183.603,255.413 187.233,257.408 190.239 C 258.651 192.111,259.327 193.456,261.211 197.800 C 262.685 201.202,262.824 204.343,263.080 240.082 C 263.299 270.796,263.405 275.193,263.932 275.395 C 264.497 275.612,279.752 275.330,282.800 275.046 C 283.570 274.975,286.638 274.890,289.619 274.858 L 295.037 274.800 294.889 260.500 C 294.375 211.145,293.710 182.145,293.015 178.788 C 291.583 171.879,286.932 163.849,281.785 159.400 C 280.512 158.300,279.275 157.220,279.035 157.000 C 277.654 155.731,270.359 151.600,269.500 151.600 C 269.292 151.600,268.554 151.348,267.860 151.040 C 263.493 149.102,250.692 148.050,245.600 149.211 M112.275 153.889 C 111.527 154.074,111.296 275.765,112.043 276.226 C 112.195 276.321,119.808 276.517,128.960 276.664 L 145.600 276.930 145.600 215.258 L 145.600 153.585 129.300 153.647 C 120.335 153.681,112.674 153.790,112.275 153.889 " stroke="none" fill="#bba4cb" fill-rule="evenodd"></path><path id="path2" d="M148.132 47.100 C 178.675 47.157,228.535 47.157,258.932 47.100 C 289.330 47.043,264.340 46.997,203.400 46.997 C 142.460 46.997,117.590 47.043,148.132 47.100 M84.905 47.487 C 85.514 47.579,86.414 47.577,86.905 47.482 C 87.397 47.387,86.900 47.311,85.800 47.314 C 84.700 47.317,84.297 47.395,84.905 47.487 M320.105 47.487 C 320.714 47.579,321.614 47.577,322.105 47.482 C 322.597 47.387,322.100 47.311,321.000 47.314 C 319.900 47.317,319.497 47.395,320.105 47.487 M72.041 52.614 C 71.359 53.392,70.800 54.148,70.800 54.294 C 70.800 54.440,70.936 54.389,71.103 54.180 C 71.270 53.971,71.933 53.215,72.578 52.500 C 73.222 51.785,73.645 51.200,73.516 51.200 C 73.388 51.200,72.724 51.836,72.041 52.614 M339.693 69.600 C 339.693 70.370,339.775 70.685,339.876 70.300 C 339.976 69.915,339.976 69.285,339.876 68.900 C 339.775 68.515,339.693 68.830,339.693 69.600 M66.893 71.200 C 66.893 71.970,66.975 72.285,67.076 71.900 C 67.176 71.515,67.176 70.885,67.076 70.500 C 66.975 70.115,66.893 70.430,66.893 71.200 M340.134 78.800 C 340.134 80.450,340.205 81.125,340.291 80.300 C 340.378 79.475,340.378 78.125,340.291 77.300 C 340.205 76.475,340.134 77.150,340.134 78.800 M66.597 183.400 C 66.597 238.180,66.643 260.531,66.700 233.068 C 66.757 205.605,66.757 160.785,66.700 133.468 C 66.643 106.151,66.597 128.620,66.597 183.400 M106.509 109.200 C 106.509 110.190,106.587 110.595,106.682 110.100 C 106.778 109.605,106.778 108.795,106.682 108.300 C 106.587 107.805,106.509 108.210,106.509 109.200 M112.000 122.550 C 112.770 123.389,114.210 124.607,115.200 125.256 C 116.190 125.904,116.468 126.022,115.817 125.518 C 115.166 125.013,113.726 123.795,112.617 122.812 C 110.749 121.156,110.704 121.136,112.000 122.550 M176.561 152.958 C 176.443 153.265,176.418 154.210,176.506 155.058 C 176.658 156.526,176.669 156.509,176.733 154.704 L 176.800 152.808 194.900 152.700 L 213.000 152.592 194.887 152.496 C 179.699 152.415,176.740 152.490,176.561 152.958 M141.300 153.493 L 145.600 153.626 145.600 215.200 L 145.600 276.774 141.199 276.907 L 136.799 277.041 141.299 277.021 L 145.800 277.000 145.800 215.200 L 145.800 153.400 141.400 153.380 L 137.000 153.361 141.300 153.493 M282.800 160.200 C 283.995 161.410,285.063 162.400,285.173 162.400 C 285.283 162.400,284.395 161.410,283.200 160.200 C 282.005 158.990,280.937 158.000,280.827 158.000 C 280.717 158.000,281.605 158.990,282.800 160.200 M111.390 196.600 C 111.390 212.440,111.439 218.862,111.500 210.871 C 111.560 202.879,111.560 189.919,111.500 182.071 C 111.439 174.222,111.390 180.760,111.390 196.600 M176.937 181.400 C 176.939 183.160,177.009 183.830,177.093 182.889 C 177.178 181.949,177.177 180.509,177.091 179.689 C 177.005 178.870,176.936 179.640,176.937 181.400 M236.105 179.487 C 236.714 179.579,237.614 179.577,238.105 179.482 C 238.597 179.387,238.100 179.311,237.000 179.314 C 235.900 179.317,235.497 179.395,236.105 179.487 M293.748 186.800 C 293.748 189.110,293.814 190.055,293.895 188.900 C 293.976 187.745,293.976 185.855,293.895 184.700 C 293.814 183.545,293.748 184.490,293.748 186.800 M254.000 186.600 C 254.746 187.370,255.447 188.000,255.557 188.000 C 255.667 188.000,255.146 187.370,254.400 186.600 C 253.654 185.830,252.953 185.200,252.843 185.200 C 252.733 185.200,253.254 185.830,254.000 186.600 M220.175 186.900 L 219.000 188.200 220.300 187.025 C 221.015 186.379,221.600 185.794,221.600 185.725 C 221.600 185.416,221.270 185.688,220.175 186.900 M177.362 201.400 C 177.362 204.920,177.424 206.306,177.498 204.481 C 177.572 202.656,177.572 199.776,177.497 198.081 C 177.422 196.386,177.361 197.880,177.362 201.400 M212.493 203.600 C 212.493 204.370,212.575 204.685,212.676 204.300 C 212.776 203.915,212.776 203.285,212.676 202.900 C 212.575 202.515,212.493 202.830,212.493 203.600 M262.576 223.000 C 262.576 229.160,262.632 231.624,262.699 228.476 C 262.767 225.327,262.767 220.287,262.699 217.276 C 262.631 214.264,262.576 216.840,262.576 223.000 M294.564 218.600 C 294.563 222.340,294.623 223.924,294.697 222.120 C 294.771 220.315,294.772 217.255,294.698 215.320 C 294.625 213.384,294.564 214.860,294.564 218.600 M177.753 223.000 C 177.753 225.640,177.818 226.668,177.897 225.284 C 177.975 223.901,177.974 221.741,177.895 220.484 C 177.816 219.228,177.752 220.360,177.753 223.000 M294.973 250.800 C 294.973 256.190,295.030 258.395,295.099 255.700 C 295.168 253.005,295.168 248.595,295.099 245.900 C 295.030 243.205,294.973 245.410,294.973 250.800 M262.982 258.600 C 262.982 267.180,263.035 270.633,263.100 266.274 C 263.164 261.914,263.164 254.894,263.099 250.674 C 263.035 246.453,262.982 250.020,262.982 258.600 M178.134 253.600 C 178.134 255.250,178.205 255.925,178.291 255.100 C 178.378 254.275,178.378 252.925,178.291 252.100 C 178.205 251.275,178.134 251.950,178.134 253.600 M211.776 262.400 C 211.776 268.670,211.832 271.235,211.899 268.100 C 211.967 264.965,211.967 259.835,211.899 256.700 C 211.832 253.565,211.776 256.130,211.776 262.400 M295.195 272.282 C 295.088 273.867,295.144 275.019,295.321 274.841 C 295.497 274.664,295.585 273.367,295.516 271.959 L 295.391 269.400 295.195 272.282 M178.500 275.700 L 178.600 277.000 195.167 277.000 C 208.273 277.000,211.755 276.893,211.837 276.490 C 211.894 276.210,211.849 276.165,211.737 276.390 C 211.603 276.660,205.953 276.800,195.192 276.800 L 178.851 276.800 178.625 275.600 C 178.403 274.417,178.401 274.418,178.500 275.700 M281.305 275.487 C 281.914 275.579,282.814 275.577,283.305 275.482 C 283.797 275.387,283.300 275.311,282.200 275.314 C 281.100 275.317,280.697 275.395,281.305 275.487 M340.131 289.000 C 340.133 290.540,340.205 291.121,340.292 290.291 C 340.379 289.461,340.377 288.201,340.289 287.491 C 340.200 286.781,340.129 287.460,340.131 289.000 M66.893 296.800 C 66.893 297.570,66.975 297.885,67.076 297.500 C 67.176 297.115,67.176 296.485,67.076 296.100 C 66.975 295.715,66.893 296.030,66.893 296.800 M339.701 297.800 C 339.705 298.680,339.787 298.993,339.883 298.495 C 339.979 297.998,339.975 297.278,339.875 296.895 C 339.775 296.513,339.696 296.920,339.701 297.800 M121.731 320.700 C 138.414 320.758,165.594 320.758,182.131 320.700 C 198.669 320.642,185.020 320.595,151.800 320.595 C 118.580 320.595,105.049 320.642,121.731 320.700 M215.700 320.697 C 217.185 320.774,219.615 320.774,221.100 320.697 C 222.585 320.620,221.370 320.557,218.400 320.557 C 215.430 320.557,214.215 320.620,215.700 320.697 M247.931 320.700 C 260.323 320.759,280.483 320.759,292.731 320.700 C 304.979 320.641,294.840 320.593,270.200 320.593 C 245.560 320.593,235.539 320.641,247.931 320.700 " stroke="none" fill="#cac2d2" fill-rule="evenodd"></path><path id="path3" d="M145.268 47.500 C 177.095 47.556,229.295 47.556,261.268 47.500 C 293.240 47.444,267.200 47.397,203.400 47.397 C 139.600 47.397,113.440 47.444,145.268 47.500 M76.000 49.800 C 75.450 50.114,75.180 50.372,75.400 50.372 C 75.620 50.372,76.250 50.114,76.800 49.800 C 77.350 49.486,77.620 49.228,77.400 49.228 C 77.180 49.228,76.550 49.486,76.000 49.800 M334.011 52.700 C 336.439 55.394,336.546 55.492,336.079 54.600 C 335.595 53.676,332.924 50.800,332.550 50.800 C 332.411 50.800,333.069 51.655,334.011 52.700 M71.600 53.600 C 71.130 54.260,70.836 54.800,70.946 54.800 C 71.056 54.800,71.530 54.260,72.000 53.600 C 72.470 52.940,72.764 52.400,72.654 52.400 C 72.544 52.400,72.070 52.940,71.600 53.600 M68.629 60.229 C 68.481 60.815,68.438 61.372,68.532 61.466 C 68.627 61.560,68.824 61.158,68.971 60.571 C 69.119 59.985,69.162 59.428,69.068 59.334 C 68.973 59.240,68.776 59.642,68.629 60.229 M338.487 62.400 C 338.483 62.950,338.624 63.850,338.800 64.400 C 339.231 65.744,339.231 64.292,338.800 62.600 C 338.526 61.522,338.494 61.502,338.487 62.400 M67.328 69.600 C 67.328 71.030,67.401 71.615,67.489 70.900 C 67.578 70.185,67.578 69.015,67.489 68.300 C 67.401 67.585,67.328 68.170,67.328 69.600 M339.755 75.800 C 339.756 78.660,339.820 79.778,339.897 78.283 C 339.974 76.789,339.974 74.449,339.896 73.083 C 339.818 71.718,339.755 72.940,339.755 75.800 M66.937 75.400 C 66.939 77.160,67.009 77.830,67.093 76.889 C 67.178 75.949,67.177 74.509,67.091 73.689 C 67.005 72.870,66.936 73.640,66.937 75.400 M340.099 181.036 C 340.045 235.835,339.922 284.255,339.827 288.636 L 339.654 296.600 340.022 289.400 C 340.230 285.310,340.348 238.836,340.294 181.800 L 340.198 81.400 340.099 181.036 M120.600 89.386 C 119.055 90.093,119.774 90.103,121.600 89.400 C 122.370 89.103,122.730 88.855,122.400 88.848 C 122.070 88.842,121.260 89.083,120.600 89.386 M133.200 88.911 C 133.310 89.024,134.105 89.309,134.966 89.544 C 135.827 89.779,136.367 89.817,136.166 89.628 C 135.780 89.266,132.856 88.559,133.200 88.911 M117.500 90.629 C 115.949 91.470,116.125 91.761,117.700 90.959 C 119.208 90.193,119.475 89.994,118.967 90.016 C 118.765 90.025,118.105 90.301,117.500 90.629 M143.800 94.800 C 144.883 95.900,145.860 96.800,145.970 96.800 C 146.080 96.800,145.283 95.900,144.200 94.800 C 143.117 93.700,142.140 92.800,142.030 92.800 C 141.920 92.800,142.717 93.700,143.800 94.800 M111.375 95.700 L 110.200 97.000 111.500 95.825 C 112.712 94.730,112.984 94.400,112.675 94.400 C 112.606 94.400,112.021 94.985,111.375 95.700 M147.515 100.050 C 148.332 101.728,149.063 103.045,149.141 102.976 C 149.346 102.795,147.403 98.742,146.660 97.800 C 146.313 97.360,146.698 98.373,147.515 100.050 M106.649 104.215 C 106.512 104.573,106.424 105.526,106.453 106.333 C 106.501 107.644,106.538 107.587,106.795 105.800 C 107.103 103.671,107.055 103.158,106.649 104.215 M149.742 109.000 C 149.741 110.980,149.808 111.840,149.892 110.912 C 149.976 109.984,149.977 108.364,149.895 107.312 C 149.812 106.260,149.743 107.020,149.742 109.000 M106.428 111.833 C 106.444 112.475,106.616 113.360,106.810 113.800 C 107.047 114.334,107.086 114.002,106.927 112.800 C 106.646 110.680,106.388 110.180,106.428 111.833 M148.065 116.617 C 147.395 118.088,147.523 118.402,148.247 117.065 C 148.586 116.440,148.788 115.854,148.696 115.763 C 148.605 115.671,148.321 116.056,148.065 116.617 M108.800 118.533 C 108.800 119.569,114.132 125.600,115.047 125.600 C 115.193 125.600,114.464 124.853,113.426 123.939 C 112.389 123.026,110.923 121.364,110.170 120.245 C 109.416 119.126,108.800 118.356,108.800 118.533 M144.000 122.666 C 144.000 123.005,141.929 124.664,138.948 126.715 C 138.537 126.998,138.952 126.837,139.870 126.358 C 141.992 125.250,144.678 122.945,144.293 122.560 C 144.132 122.399,144.000 122.446,144.000 122.666 M119.600 127.933 C 119.930 128.136,120.650 128.424,121.200 128.571 C 121.895 128.757,122.017 128.725,121.600 128.467 C 121.270 128.264,120.550 127.976,120.000 127.829 C 119.305 127.643,119.183 127.675,119.600 127.933 M135.400 128.214 C 134.400 128.696,134.366 128.751,135.200 128.548 C 136.333 128.271,137.607 127.621,137.000 127.630 C 136.780 127.633,136.060 127.896,135.400 128.214 M126.711 129.493 C 127.651 129.578,129.091 129.577,129.911 129.491 C 130.730 129.405,129.960 129.336,128.200 129.337 C 126.440 129.339,125.770 129.409,126.711 129.493 M251.315 148.296 C 252.588 148.376,254.568 148.375,255.715 148.294 C 256.862 148.214,255.820 148.149,253.400 148.150 C 250.980 148.151,250.042 148.216,251.315 148.296 M245.400 148.803 C 244.885 149.026,245.313 149.067,246.600 148.918 C 247.700 148.791,248.675 148.623,248.767 148.544 C 249.114 148.245,246.164 148.472,245.400 148.803 M259.105 148.683 C 259.602 148.779,260.322 148.775,260.705 148.675 C 261.087 148.575,260.680 148.496,259.800 148.501 C 258.920 148.505,258.607 148.587,259.105 148.683 M239.800 150.186 C 238.255 150.893,238.974 150.903,240.800 150.200 C 241.570 149.903,241.930 149.655,241.600 149.648 C 241.270 149.642,240.460 149.883,239.800 150.186 M268.800 150.934 C 268.800 151.037,269.381 151.324,270.091 151.572 C 270.801 151.819,271.206 151.857,270.991 151.656 C 270.535 151.229,268.800 150.658,268.800 150.934 M271.633 152.151 C 272.042 152.521,275.200 153.995,275.200 153.816 C 275.200 153.589,272.181 152.000,271.749 152.000 C 271.594 152.000,271.542 152.068,271.633 152.151 M213.190 152.663 C 213.454 152.794,213.600 156.482,213.600 163.010 C 213.600 173.784,213.698 174.366,215.127 172.067 L 216.039 170.600 215.026 171.798 L 214.014 172.995 213.907 162.831 C 213.824 154.982,213.684 152.643,213.290 152.563 C 213.010 152.506,212.965 152.552,213.190 152.663 M232.700 153.227 C 231.875 153.663,231.200 154.108,231.200 154.218 C 231.200 154.327,231.920 154.049,232.800 153.600 C 233.680 153.151,234.400 152.697,234.400 152.592 C 234.400 152.330,234.397 152.331,232.700 153.227 M142.000 153.025 C 143.403 153.335,145.918 153.390,145.743 153.107 C 145.638 152.938,144.618 152.821,143.476 152.846 C 142.334 152.872,141.670 152.952,142.000 153.025 M110.984 153.700 C 110.879 153.975,110.841 165.270,110.899 178.800 L 111.006 203.400 111.103 178.506 L 111.200 153.611 124.100 153.500 L 137.000 153.389 124.087 153.294 C 114.056 153.221,111.132 153.312,110.984 153.700 M227.767 156.629 L 226.200 158.058 227.900 156.762 C 229.453 155.578,229.832 155.200,229.467 155.200 C 229.393 155.200,228.628 155.843,227.767 156.629 M277.600 155.306 C 277.600 155.394,278.365 156.074,279.300 156.817 C 280.235 157.560,280.746 157.852,280.436 157.465 C 279.851 156.737,277.600 155.023,277.600 155.306 M176.563 162.800 C 176.563 166.430,176.623 167.915,176.698 166.100 C 176.772 164.285,176.772 161.315,176.698 159.500 C 176.623 157.685,176.563 159.170,176.563 162.800 M223.785 160.100 L 221.800 162.200 223.900 160.215 C 225.851 158.371,226.183 158.000,225.885 158.000 C 225.822 158.000,224.877 158.945,223.785 160.100 M283.000 160.000 C 284.083 161.100,285.060 162.000,285.170 162.000 C 285.280 162.000,284.483 161.100,283.400 160.000 C 282.317 158.900,281.340 158.000,281.230 158.000 C 281.120 158.000,281.917 158.900,283.000 160.000 M219.724 164.700 C 217.972 167.230,217.247 168.443,217.870 167.800 C 218.737 166.907,221.750 162.400,221.482 162.400 C 221.390 162.400,220.599 163.435,219.724 164.700 M286.277 163.622 C 286.915 164.403,287.849 165.708,288.351 166.522 C 288.854 167.335,289.351 168.000,289.455 168.000 C 289.861 168.000,288.124 165.424,286.658 163.853 C 285.523 162.637,285.423 162.576,286.277 163.622 M289.634 168.600 C 289.634 168.820,289.978 169.630,290.400 170.400 C 290.822 171.170,291.166 171.620,291.166 171.400 C 291.166 171.180,290.822 170.370,290.400 169.600 C 289.978 168.830,289.634 168.380,289.634 168.600 M293.024 178.200 C 293.730 182.239,293.976 183.054,293.746 180.600 C 293.623 179.280,293.363 177.930,293.168 177.600 C 292.931 177.198,292.883 177.396,293.024 178.200 M242.033 180.144 C 242.125 180.223,242.740 180.408,243.400 180.556 C 244.276 180.752,244.438 180.715,244.000 180.418 C 243.460 180.053,241.632 179.798,242.033 180.144 M247.398 182.078 C 251.121 184.040,254.478 187.140,257.717 191.610 C 258.407 192.562,258.407 192.548,257.717 191.237 C 256.048 188.066,248.101 181.155,246.200 181.221 C 245.980 181.229,246.519 181.614,247.398 182.078 M176.962 190.600 C 176.962 194.120,177.024 195.506,177.098 193.681 C 177.172 191.856,177.172 188.976,177.097 187.281 C 177.022 185.586,176.961 187.080,176.962 190.600 M220.738 186.700 C 219.002 188.562,216.985 191.313,216.045 193.100 C 215.184 194.737,215.904 194.034,216.996 192.171 C 217.586 191.165,219.141 189.095,220.453 187.571 C 223.189 184.391,223.351 183.897,220.738 186.700 M294.109 194.000 C 294.109 194.990,294.187 195.395,294.282 194.900 C 294.378 194.405,294.378 193.595,294.282 193.100 C 294.187 192.605,294.109 193.010,294.109 194.000 M294.567 204.400 C 294.567 208.690,294.626 210.445,294.698 208.300 C 294.770 206.155,294.770 202.645,294.698 200.500 C 294.626 198.355,294.567 200.110,294.567 204.400 M212.189 234.000 C 212.189 248.850,212.239 254.925,212.300 247.500 C 212.361 240.075,212.361 227.925,212.300 220.500 C 212.239 213.075,212.189 219.150,212.189 234.000 M177.373 217.000 C 177.373 222.280,177.430 224.385,177.499 221.677 C 177.568 218.969,177.568 214.649,177.499 212.077 C 177.429 209.505,177.372 211.720,177.373 217.000 M294.981 226.800 C 294.981 234.830,295.034 238.115,295.099 234.100 C 295.165 230.085,295.165 223.515,295.099 219.500 C 295.034 215.485,294.981 218.770,294.981 226.800 M111.396 251.000 L 111.400 277.000 112.400 277.066 C 113.276 277.123,113.288 277.107,112.503 276.938 L 111.606 276.745 111.498 250.873 L 111.391 225.000 111.396 251.000 M177.774 237.600 C 177.774 243.210,177.830 245.505,177.899 242.700 C 177.968 239.895,177.968 235.305,177.899 232.500 C 177.830 229.695,177.774 231.990,177.774 237.600 M262.580 247.400 C 262.580 254.880,262.634 257.883,262.699 254.074 C 262.765 250.265,262.765 244.145,262.699 240.474 C 262.633 236.803,262.579 239.920,262.580 247.400 M295.371 260.800 C 295.371 265.750,295.428 267.775,295.499 265.300 C 295.569 262.825,295.569 258.775,295.499 256.300 C 295.428 253.825,295.371 255.850,295.371 260.800 M178.164 263.000 C 178.163 266.740,178.223 268.324,178.297 266.520 C 178.371 264.715,178.372 261.655,178.298 259.720 C 178.225 257.784,178.164 259.260,178.164 263.000 M211.693 274.800 C 211.693 275.570,211.775 275.885,211.876 275.500 C 211.976 275.115,211.976 274.485,211.876 274.100 C 211.775 273.715,211.693 274.030,211.693 274.800 M262.912 275.738 C 263.022 276.066,276.006 276.127,276.333 275.801 C 276.423 275.711,273.414 275.584,269.647 275.519 C 265.881 275.453,262.850 275.552,262.912 275.738 M286.517 275.497 C 288.011 275.574,290.351 275.574,291.717 275.496 C 293.082 275.418,291.860 275.355,289.000 275.355 C 286.140 275.356,285.022 275.420,286.517 275.497 M120.324 277.099 C 123.473 277.167,128.513 277.167,131.524 277.099 C 134.536 277.031,131.960 276.976,125.800 276.976 C 119.640 276.976,117.176 277.032,120.324 277.099 M143.600 277.200 L 141.400 277.470 143.476 277.535 C 144.618 277.571,145.664 277.420,145.800 277.200 C 145.936 276.980,145.992 276.829,145.924 276.865 C 145.856 276.901,144.810 277.052,143.600 277.200 M178.400 277.300 C 178.400 277.465,185.285 277.561,193.700 277.512 C 202.115 277.464,206.570 277.375,203.600 277.314 C 189.887 277.033,178.399 277.027,178.400 277.300 M210.400 277.200 L 209.000 277.495 210.276 277.547 C 210.978 277.576,211.664 277.420,211.800 277.200 C 211.936 276.980,211.992 276.824,211.924 276.853 C 211.856 276.882,211.170 277.038,210.400 277.200 M66.937 292.600 C 66.939 294.360,67.009 295.030,67.093 294.089 C 67.178 293.149,67.177 291.709,67.091 290.889 C 67.005 290.070,66.936 290.840,66.937 292.600 M67.320 298.400 C 67.320 299.610,67.395 300.105,67.487 299.500 C 67.578 298.895,67.578 297.905,67.487 297.300 C 67.395 296.695,67.320 297.190,67.320 298.400 M338.662 303.900 C 338.260 305.365,338.012 307.802,338.347 307.000 C 338.728 306.088,339.225 303.200,339.002 303.200 C 338.920 303.200,338.767 303.515,338.662 303.900 M68.456 306.800 C 68.456 307.130,68.611 307.760,68.800 308.200 C 69.017 308.704,69.144 308.778,69.144 308.400 C 69.144 308.070,68.989 307.440,68.800 307.000 C 68.583 306.496,68.456 306.422,68.456 306.800 M70.329 312.200 C 70.784 313.080,71.622 314.340,72.190 315.000 C 72.816 315.726,72.585 315.183,71.604 313.625 C 69.659 310.534,69.206 310.029,70.329 312.200 M73.817 316.427 C 74.107 316.897,77.594 318.944,77.771 318.749 C 77.846 318.667,76.936 318.029,75.749 317.332 C 74.563 316.634,73.693 316.227,73.817 316.427 M329.600 318.200 C 329.050 318.514,328.780 318.772,329.000 318.772 C 329.220 318.772,329.850 318.514,330.400 318.200 C 330.950 317.886,331.220 317.628,331.000 317.628 C 330.780 317.628,330.150 317.886,329.600 318.200 M81.000 319.597 C 81.764 319.928,84.714 320.155,84.367 319.856 C 84.275 319.777,83.300 319.609,82.200 319.482 C 80.913 319.333,80.485 319.374,81.000 319.597 M323.800 319.600 L 322.200 319.886 323.600 319.903 C 324.370 319.913,325.450 319.776,326.000 319.600 C 327.285 319.188,326.099 319.188,323.800 319.600 M86.305 320.283 C 86.802 320.379,87.522 320.375,87.905 320.275 C 88.287 320.175,87.880 320.096,87.000 320.101 C 86.120 320.105,85.807 320.187,86.305 320.283 M319.905 320.283 C 320.402 320.379,321.122 320.375,321.505 320.275 C 321.887 320.175,321.480 320.096,320.600 320.101 C 319.720 320.105,319.407 320.187,319.905 320.283 " stroke="none" fill="#dcd5e2" fill-rule="evenodd"></path><path id="path4" d="M88.500 47.091 C 89.325 47.178,90.675 47.178,91.500 47.091 C 92.325 47.005,91.650 46.934,90.000 46.934 C 88.350 46.934,87.675 47.005,88.500 47.091 M315.300 47.091 C 316.125 47.178,317.475 47.178,318.300 47.091 C 319.125 47.005,318.450 46.934,316.800 46.934 C 315.150 46.934,314.475 47.005,315.300 47.091 M333.200 50.658 C 333.200 50.874,333.785 51.579,334.500 52.225 L 335.800 53.400 334.600 52.002 C 333.940 51.233,333.355 50.528,333.300 50.435 C 333.245 50.343,333.200 50.443,333.200 50.658 M340.093 74.800 C 340.093 75.570,340.175 75.885,340.276 75.500 C 340.376 75.115,340.376 74.485,340.276 74.100 C 340.175 73.715,340.093 74.030,340.093 74.800 M66.509 82.400 C 66.509 83.390,66.587 83.795,66.682 83.300 C 66.778 82.805,66.778 81.995,66.682 81.500 C 66.587 81.005,66.509 81.410,66.509 82.400 M126.305 88.683 C 126.802 88.779,127.522 88.775,127.905 88.675 C 128.287 88.575,127.880 88.496,127.000 88.501 C 126.120 88.505,125.807 88.587,126.305 88.683 M123.600 128.800 C 124.968 129.238,126.019 129.238,125.000 128.800 C 124.560 128.611,123.840 128.462,123.400 128.468 C 122.757 128.477,122.796 128.543,123.600 128.800 M252.100 148.691 C 252.925 148.778,254.275 148.778,255.100 148.691 C 255.925 148.605,255.250 148.534,253.600 148.534 C 251.950 148.534,251.275 148.605,252.100 148.691 M111.377 154.115 C 111.269 154.398,111.234 157.683,111.300 161.415 L 111.421 168.200 111.510 161.129 C 111.591 154.776,111.671 154.040,112.300 153.876 C 112.956 153.704,112.955 153.690,112.287 153.646 C 111.896 153.621,111.486 153.832,111.377 154.115 M176.969 170.400 C 176.969 174.910,177.027 176.755,177.098 174.500 C 177.170 172.245,177.170 168.555,177.098 166.300 C 177.027 164.045,176.969 165.890,176.969 170.400 M286.000 164.000 C 286.470 164.660,286.944 165.200,287.054 165.200 C 287.164 165.200,286.870 164.660,286.400 164.000 C 285.930 163.340,285.456 162.800,285.346 162.800 C 285.236 162.800,285.530 163.340,286.000 164.000 M239.000 179.403 C 239.914 179.721,242.329 179.809,242.148 179.516 C 242.041 179.342,241.198 179.214,240.276 179.232 C 239.354 179.249,238.780 179.326,239.000 179.403 M177.363 186.400 C 177.363 190.030,177.423 191.515,177.498 189.700 C 177.572 187.885,177.572 184.915,177.498 183.100 C 177.423 181.285,177.363 182.770,177.363 186.400 M293.728 193.200 C 293.728 194.630,293.801 195.215,293.889 194.500 C 293.978 193.785,293.978 192.615,293.889 191.900 C 293.801 191.185,293.728 191.770,293.728 193.200 M262.548 208.000 C 262.548 210.310,262.614 211.255,262.695 210.100 C 262.776 208.945,262.776 207.055,262.695 205.900 C 262.614 204.745,262.548 205.690,262.548 208.000 M177.737 215.400 C 177.739 217.160,177.809 217.830,177.893 216.889 C 177.978 215.949,177.977 214.509,177.891 213.689 C 177.805 212.870,177.736 213.640,177.737 215.400 M294.542 228.600 C 294.541 230.580,294.608 231.440,294.692 230.512 C 294.776 229.584,294.777 227.964,294.695 226.912 C 294.612 225.860,294.543 226.620,294.542 228.600 M262.971 234.400 C 262.971 239.350,263.028 241.375,263.099 238.900 C 263.169 236.425,263.169 232.375,263.099 229.900 C 263.028 227.425,262.971 229.450,262.971 234.400 M211.770 242.600 C 211.771 247.440,211.829 249.365,211.899 246.878 C 211.969 244.391,211.969 240.431,211.898 238.078 C 211.828 235.725,211.770 237.760,211.770 242.600 M111.720 240.800 C 111.720 242.010,111.795 242.505,111.887 241.900 C 111.978 241.295,111.978 240.305,111.887 239.700 C 111.795 239.095,111.720 239.590,111.720 240.800 M178.146 247.000 C 178.147 249.200,178.214 250.049,178.295 248.887 C 178.376 247.724,178.376 245.924,178.293 244.887 C 178.211 243.849,178.145 244.800,178.146 247.000 M111.724 249.800 C 111.726 251.120,111.801 251.612,111.890 250.893 C 111.979 250.174,111.977 249.094,111.886 248.493 C 111.795 247.892,111.722 248.480,111.724 249.800 M111.751 260.800 C 111.751 263.330,111.816 264.365,111.896 263.100 C 111.975 261.835,111.975 259.765,111.896 258.500 C 111.816 257.235,111.751 258.270,111.751 260.800 M178.572 265.400 C 178.572 270.460,178.629 272.475,178.699 269.877 C 178.769 267.280,178.768 263.140,178.698 260.677 C 178.628 258.215,178.571 260.340,178.572 265.400 M294.954 265.200 C 294.954 267.950,295.018 269.075,295.096 267.700 C 295.174 266.325,295.174 264.075,295.096 262.700 C 295.018 261.325,294.954 262.450,294.954 265.200 M286.700 275.096 C 288.075 275.174,290.325 275.174,291.700 275.096 C 293.075 275.018,291.950 274.954,289.200 274.954 C 286.450 274.954,285.325 275.018,286.700 275.096 M111.950 276.511 C 112.122 276.683,114.859 276.772,118.031 276.710 L 123.800 276.597 117.719 276.399 C 114.374 276.289,111.778 276.340,111.950 276.511 M66.514 284.600 C 66.517 285.700,66.595 286.103,66.687 285.495 C 66.779 284.886,66.777 283.986,66.682 283.495 C 66.587 283.003,66.511 283.500,66.514 284.600 M86.100 320.676 C 86.485 320.776,87.115 320.776,87.500 320.676 C 87.885 320.575,87.570 320.493,86.800 320.493 C 86.030 320.493,85.715 320.575,86.100 320.676 M89.100 320.682 C 89.595 320.778,90.405 320.778,90.900 320.682 C 91.395 320.587,90.990 320.509,90.000 320.509 C 89.010 320.509,88.605 320.587,89.100 320.682 M316.100 320.691 C 316.925 320.778,318.275 320.778,319.100 320.691 C 319.925 320.605,319.250 320.534,317.600 320.534 C 315.950 320.534,315.275 320.605,316.100 320.691 " stroke="none" fill="#c4b1d0" fill-rule="evenodd"></path></g></svg>